<?xml version="1.0" encoding="UTF-8"?>
<svg width="26px" height="27px" viewBox="0 0 26 27" version="1.1" xmlns="http://www.w3.org/2000/svg" xmlns:xlink="http://www.w3.org/1999/xlink">
    <!-- Generator: Sketch 43.2 (39069) - http://www.bohemiancoding.com/sketch -->
    <title>anonymous</title>
    <desc>Created with Sketch.</desc>
    <defs></defs>
    <g id="Page-1" stroke="none" stroke-width="1" fill="none" fill-rule="evenodd">
        <g id="anonymous" transform="translate(1.000000, 1.000000)">
            <path d="M3.5,11.3360064 C3.5,6.58604791 7.34568074,2.61801185 11.9412483,2.74082404 L12.0628446,2.72914623 C12.1855356,2.70194122 12.4198631,2.65926008 12.7417554,2.61605788 C13.9283424,2.4568022 15.1855345,2.44361392 16.3498605,2.66939368 C18.9364634,3.17097362 20.4354839,4.70779272 20.4354839,7.71543215 C20.4354839,7.95073037 20.4354839,7.95073037 20.4354839,8.21592022 C20.4354839,11.593964 20.4354839,11.593964 20.4354839,18.1719429 C20.4354839,22.5095753 16.7833077,25.1597472 11.9802106,25.0399337 C7.19373175,24.9205347 3.5,22.0978475 3.5,17.8772024 C3.5,13.3462966 3.5,13.3462966 3.5,11.5368309 C3.5,11.383409 3.5,11.273098 3.5,11.1900411 L3.5,11.3360064 Z M2.51487036,10.7966504 C2.50500209,10.9753282 2.5,11.1551626 2.5,11.3360064 L3.5,11.3360064 C3.5,11.2685759 3.5,11.2685759 3.5,11.0662843 C3.5,10.9987799 3.5,10.9987799 3.5,10.9362868 C3.5,10.8592965 3.5,10.8592965 3.5,10.8134929 C3.5,10.805465 3.5,10.805465 3.5,10.8003728 C3.5,10.7984142 3.5,10.7984142 3.5,10.7972634 C3.5,10.7968441 3.5,10.7968441 3.5,10.7966361 L3.5,10.7965624 L2.51487036,10.7966504 Z" id="Rectangle-4" stroke="#030303"></path>
            <polygon id="Path-2" stroke="#000000" points="4 12 19.2502613 12 17.7712639 16.3010951 13.0093748 16.2577358 11.634953 13.35369 10.4331066 16.3010951 5.24331601 16.3010951"></polygon>
            <path d="M0,10.0876836 L24.080458,10.0876836 L24.080458,9.06958497 L20.9477529,9.06958497 C20.9477529,9.06958497 20.0424499,3.29445681 19.4685721,0.850330132 C18.8946943,-1.59379654 12.2158954,2.00812868 12.2158954,2.00812868 C12.2158954,2.00812868 5.20559698,-0.843524499 4.84112792,0.850330132 C3.96099309,3.95723582 3.33353964,9.24449866 3.33353964,9.24449866 L0,9.24449866 L0,10.0876836 Z" id="Path-3" stroke="#000000" fill="#FFFFFF"></path>
        </g>
    </g>
</svg>
