<?xml version="1.0" encoding="UTF-8"?>
<svg width="22px" height="25px" viewBox="0 0 22 25" version="1.1" xmlns="http://www.w3.org/2000/svg" xmlns:xlink="http://www.w3.org/1999/xlink">
    <!-- Generator: Sketch 43.2 (39069) - http://www.bohemiancoding.com/sketch -->
    <title>Mike</title>
    <desc>Created with Sketch.</desc>
    <defs></defs>
    <g id="Page-1" stroke="none" stroke-width="1" fill="none" fill-rule="evenodd">
        <g id="Mike" fill-rule="nonzero" fill="#000000">
            <g id="smiling-girl">
                <path d="M21.2770061,23.2577659 C20.1840621,22.0447331 20.1378132,18.953814 20.2671702,15.7556907 C20.7432482,15.3075256 21.041504,14.6716653 21.041504,13.9669466 C21.041504,13.3480964 20.8113676,12.7824391 20.4330364,12.3501734 C20.5920206,9.08821859 20.6763535,6.90684037 19.6440055,4.89263997 C18.9397157,3.51827466 17.8001145,2.36995012 16.256929,1.47958212 C14.4583538,0.441910588 12.4067219,-0.0674556639 10.3235964,0.00718981513 C8.49381922,0.0725411429 6.79030801,0.926960067 5.61559738,2.36053906 C4.09877313,2.45096706 2.71894596,3.27832188 1.97657223,4.55705681 C1.91282689,4.66683301 1.85118112,4.77970726 1.79332624,4.89258151 C0.760395055,6.90789254 0.844669549,9.08909539 1.00365382,12.3506995 C0.625555864,12.7829068 0.395652711,13.3483302 0.395652711,13.9669466 C0.395652711,14.6714315 0.693675317,15.3071164 1.16952002,15.7552815 C1.298877,18.9536387 1.25262809,22.0447915 0.159684128,23.2578244 C0.0563385199,23.3725107 0.0162133629,23.5310374 0.0524893043,23.6812636 C0.0887652457,23.8314898 0.19677657,23.9540674 0.341005513,24.0087217 C1.57117984,24.4745983 2.76257041,24.6411916 3.83784296,24.6411916 C4.95487368,24.6411916 5.9465716,24.4612709 6.72510463,24.2502527 C8.07787064,23.8836306 9.03200955,23.3690035 9.35755988,23.1790872 C9.80062793,23.2522713 10.255127,23.2910262 10.7185492,23.2910262 C11.1818548,23.2910262 11.6362372,23.2523297 12.0791886,23.1791456 C12.4047973,23.3691204 13.3588779,23.8836306 14.7115272,24.2502527 C15.7500573,24.5317077 16.7128278,24.6417761 17.5838003,24.6417761 C19.034663,24.6417761 20.2305443,24.3362382 21.0956264,24.0086048 C21.2399136,23.9539505 21.3478666,23.8314314 21.3841426,23.6811467 C21.4204768,23.5309789 21.3803517,23.3725107 21.2770061,23.2577659 Z M19.0585165,14.9321938 L19.0585165,12.6107019 C19.0586331,12.6045643 19.0586331,12.5983682 19.0585165,12.5921721 L19.0585165,12.5210338 C19.6669841,12.718783 20.1083025,13.2920392 20.1083025,13.9668881 C20.1083025,14.6471148 19.6601022,15.2244043 19.0441111,15.4176525 C19.0533258,15.2569631 19.0585165,15.0952214 19.0585165,14.9321938 Z M2.62335711,5.31993711 C2.67380516,5.22155939 2.72751921,5.12312323 2.78309956,5.02743439 C3.39763267,3.96889486 4.57298483,3.30228793 5.85045785,3.28773294 C5.85191589,3.28773294 5.85541518,3.28767449 5.85693154,3.28761603 C5.99865266,3.28463489 6.13127563,3.21729613 6.21753306,3.10459724 C7.22445288,1.78815963 8.73317045,0.999851933 10.3568396,0.941807328 C12.2650591,0.873591765 14.1443511,1.33987758 15.7912905,2.29010225 C17.1761334,3.08910699 18.1930845,4.10848249 18.813858,5.31993711 C19.6401563,6.9320924 19.6646513,8.6857643 19.5291705,11.6989983 C19.3791678,11.6365112 19.2216999,11.5887545 19.0585165,11.5570141 L19.0585165,11.0814925 C19.0585165,10.8232437 18.849609,10.6138623 18.5919449,10.6138623 C18.3342807,10.6138623 18.1253733,10.8232437 18.1253733,11.0814925 L18.1253733,12.1435393 C11.6984079,12.2123394 8.21918351,9.10967113 7.29082269,8.13892918 C7.18158661,8.02471049 7.02213577,7.97362188 6.867234,8.00302413 C6.71215727,8.03242639 6.58245036,8.13840309 6.52243759,8.28471291 C5.84445075,9.93766894 4.65988379,10.8024926 2.7946472,11.0062625 C2.55792044,11.0320991 2.37864031,11.2324787 2.37864031,11.4711454 L2.37864031,11.5569556 C2.21528193,11.588696 2.05763905,11.6365112 1.90751964,11.6991152 C1.77198059,8.68658266 1.79665056,6.93296921 2.62335711,5.31993711 Z M2.39298738,15.417711 C1.77699624,15.2244628 1.3287959,14.6471732 1.3287959,13.9669466 C1.3287959,13.2920392 1.7701143,12.718783 2.37858198,12.5210923 L2.37858198,14.9321938 C2.37858198,15.0952214 2.38377259,15.2569631 2.39298738,15.417711 Z M1.2532113,23.3314177 C2.08522509,21.9080681 2.22951236,19.5419175 2.12371725,16.3131644 C2.24759201,16.3515101 2.37578255,16.3798017 2.50712246,16.3980393 C3.03778932,19.3924512 5.16471426,21.8403787 7.97155064,22.8246234 C6.62158406,23.4068231 4.06652137,24.1782961 1.2532113,23.3314177 Z M10.7185492,22.3557656 C6.63441477,22.3557656 3.31172517,19.0255368 3.31172517,14.9321354 L3.31178349,11.8792697 C5.06160193,11.5906834 6.30740641,10.7273211 7.09713715,9.25416887 C7.76935018,9.86881039 8.8562287,10.7117724 10.3879832,11.4505697 C12.6910973,12.5614254 15.2920589,13.1093127 18.1253733,13.0789752 L18.1253733,14.9321354 C18.1253733,19.0255953 14.8026837,22.3557656 10.7185492,22.3557656 Z M14.985813,23.355676 C14.3875516,23.1953958 13.8713484,23.0017384 13.4638565,22.825208 C16.2715677,21.8414308 18.3992508,19.3930942 18.9300343,16.3980393 C19.0612576,16.3798017 19.1892731,16.3515686 19.3130313,16.3132813 C19.2071778,19.5424436 19.3514068,21.9085942 20.1838288,23.3318853 C18.5360729,23.8307884 16.7905119,23.8392057 14.985813,23.355676 Z" id="Shape"></path>
            </g>
        </g>
    </g>
</svg>