<?xml version="1.0" encoding="UTF-8"?>
<svg width="23px" height="25px" viewBox="0 0 23 25" version="1.1" xmlns="http://www.w3.org/2000/svg" xmlns:xlink="http://www.w3.org/1999/xlink">
    <!-- Generator: Sketch 43.2 (39069) - http://www.bohemiancoding.com/sketch -->
    <title>Molly</title>
    <desc>Created with Sketch.</desc>
    <defs></defs>
    <g id="Page-1" stroke="none" stroke-width="1" fill="none" fill-rule="evenodd">
        <g id="Molly" fill-rule="nonzero" fill="#000000">
            <g id="boy-broad-smile">
                <path d="M22.0385675,14.8576653 C22.0385675,13.5874062 21.1223376,12.5282236 19.9176497,12.3073268 L19.9176497,4.48428185 C19.9176497,3.46940729 19.4139274,2.52853523 18.570191,1.96743738 C17.7776608,1.44047654 16.7938946,1.3208801 15.9042592,1.63506918 L12.9750061,0.638549109 C10.7241481,-0.127253882 8.3548392,-0.205815765 6.12328559,0.411280807 C3.20184756,1.21917052 1.52697218,2.92754074 1.2684332,5.35594464 C1.03963815,5.6583845 0.857850196,5.99805943 0.734325367,6.36456464 L0.507105001,7.03859519 C0.38515485,7.40048255 0.519585791,7.78078286 0.841753476,7.98490346 C1.16386284,8.18902407 1.56435623,8.1477557 1.83823376,7.88208326 C1.93178136,7.79130454 2.03407718,7.71484699 2.14173858,7.65089855 L2.14173858,12.3073268 C0.937050724,12.5282236 0.0208207574,13.5873477 0.0208207574,14.8576653 C0.0208207574,16.1787792 1.0117605,17.2715726 2.28765884,17.43045 C2.60807689,19.2037039 3.45006365,20.8394161 4.73750964,22.1483716 C6.41839213,23.8573264 8.65292013,24.7984323 11.0296942,24.7984323 L11.030569,24.7984323 C13.4043103,24.7981985 15.6359222,23.8715891 17.3144135,22.1893477 C18.625538,20.8752483 19.4765646,19.2228768 19.7864265,17.4285795 C21.0552096,17.2630968 22.0385675,16.1736353 22.0385675,14.8576653 Z M18.0542794,2.74680165 C18.645484,3.13990333 18.9845065,3.7731916 18.9845065,4.48428185 L18.9845065,10.6037498 C17.5363266,10.3781766 16.4243699,9.12001745 16.4243699,7.60629832 L16.3857611,2.4647037 C16.9555033,2.31418521 17.5496239,2.41121849 18.0542794,2.74680165 Z M1.52773036,6.9328523 L1.61842022,6.66390645 C1.85596348,5.95924612 2.38348099,5.38715896 3.06566698,5.09442242 C3.74779465,4.80168588 4.52492796,4.81384427 5.19766587,5.12791644 C6.6105613,5.78745045 8.31862158,5.43088239 9.35126116,4.2608715 L9.46685428,4.12987657 C9.63761948,3.93645301 9.61953983,3.64091069 9.42655416,3.46981647 C9.23351016,3.29872225 8.93863691,3.31678447 8.76793003,3.51020803 L8.65233692,3.64120296 C7.89135865,4.50339624 6.63272345,4.76608753 5.59162726,4.28010279 C4.67872162,3.85391627 3.62409485,3.83737385 2.69835849,4.2346842 C2.614084,4.27086709 2.53214236,4.31125866 2.4514838,4.35352074 C2.99381495,2.90439304 4.30639749,1.88390692 6.37156,1.31281348 C8.42220048,0.745694891 10.6019063,0.818820571 12.6751755,1.5241239 L15.4526179,2.46902928 L15.4890105,4.88533324 C14.2523041,6.57061422 12.448655,7.71145667 10.3932905,8.10374 C8.28864436,8.50537593 6.14159853,8.08035849 4.34751411,6.90695728 C3.47088441,6.33370104 2.36563462,6.35819318 1.52773036,6.9328523 Z M0.953963945,14.8576653 C0.953963945,14.1057743 1.4560533,13.4695633 2.14173858,13.2671379 L2.14173858,15.8018108 C2.14173858,16.0207786 2.14961197,16.238519 2.16495052,16.4548564 C1.4674843,16.2600299 0.953963945,15.6180321 0.953963945,14.8576653 Z M16.654623,21.5279432 C15.1523791,23.0335957 13.1550444,23.8628795 11.0305107,23.8631133 L11.0296942,23.8631133 C8.90486879,23.8631133 6.90607609,23.0208528 5.40202423,21.4917603 C3.90135502,19.9659997 3.07488177,17.9452525 3.07488177,15.8017523 L3.07488177,7.43041089 C3.33913625,7.45016827 3.60134949,7.53586151 3.83743471,7.69023795 C5.83471106,8.99650461 8.22484069,9.46968797 10.56773,9.02251654 C12.4695341,8.65951855 14.1780026,7.72116 15.4911684,6.33726672 L15.4911684,7.60623987 C15.4911684,9.63639815 17.0201818,11.3143724 18.9844482,11.5466093 L18.9844482,15.8901929 C18.9845065,18.0198979 18.1571001,20.0221153 16.654623,21.5279432 Z M19.8996284,16.4533366 C19.911176,16.2666352 19.9176497,16.0789401 19.9176497,15.8902513 L19.9176497,13.2671379 C20.603335,13.4695633 21.1054244,14.1057743 21.1054244,14.8576653 C21.1054244,15.6161031 20.5945285,16.256815 19.8996284,16.4533366 Z" id="Shape"></path>
            </g>
        </g>
    </g>
</svg>