<?xml version="1.0" encoding="UTF-8"?>
<svg width="18px" height="25px" viewBox="0 0 18 25" version="1.1" xmlns="http://www.w3.org/2000/svg" xmlns:xlink="http://www.w3.org/1999/xlink">
    <!-- Generator: Sketch 43.2 (39069) - http://www.bohemiancoding.com/sketch -->
    <title>start</title>
    <desc>Created with Sketch.</desc>
    <defs></defs>
    <g id="Page-1" stroke="none" stroke-width="1" fill="none" fill-rule="evenodd">
        <g id="start">
            <g id="menu-copy">
                <path d="M0.500012552,7.94192474 C0.507965023,3.23751478 4.2937517,-0.149615404 8.80626341,0.606814329 L8.92768085,0.612190276 C8.95034234,0.610428435 8.99905888,0.60747056 9.07154752,0.604410101 C10.3086821,0.552178487 11.8183971,0.688801777 13.2534277,1.16937451 C15.8909932,2.05266021 17.4354839,3.84450462 17.4354839,6.87617398 C17.4354839,7.11147221 17.4354839,7.11147221 17.4354839,7.37666205 C17.4354839,10.7547058 17.4354839,10.7547058 17.4354839,17.3326847 C17.4354839,21.6703172 13.7833077,24.3204891 8.98021058,24.2006755 C4.19373175,24.0812766 0.5,21.2585893 0.5,17.0379442 C0.5,12.3078506 0.5,12.3078506 0.5,9.89788441 C0.5,8.36192793 0.5,8.36192793 0.5,8.00188289 C0.5,7.95722207 0.5,7.95722207 0.5,7.94408748 C0.5,7.94244582 0.5,7.94244582 0.5,7.94195356 L0.5,7.94192038 L0.500012552,7.94192474 Z" id="Rectangle-4" stroke="#030303"></path>
                <path d="M4.5,12.5 L8.5,12.5" id="Line" stroke="#979797" stroke-linecap="square"></path>
                <path d="M6.5,19.5 L10.5,19.5" id="Line-Copy-2" stroke="#979797" stroke-linecap="square"></path>
                <path d="M8.5,16.5 L8.5,12.5" id="Line-Copy" stroke="#979797" stroke-linecap="square"></path>
            </g>
        </g>
    </g>
</svg>